<svg height="1000" viewBox="0 0 1000 1000" width="1000" xmlns="http://www.w3.org/2000/svg"><path d="m43.6708 374.6978c7.4467-4.3348 16.7154-3.7369 24.8337-1.9442a67.1157 67.1157 0 0 1 20.71 8.4214 75.3666 75.3666 0 0 1 29.1855 33.1908 67.85 67.85 0 0 1 5.6392 21.3592q.1212 1.3879.1822 2.78c.0672 1.4719 1.9908 2.5127 3.0924 1.2808a20.1193 20.1193 0 0 1 13.4408-6.6287 19.4567 19.4567 0 0 1 13.7569 4.4752 20.0168 20.0168 0 0 1 5.1994 6.5933 1.8224 1.8224 0 0 0 2.8446.3668 35.15 35.15 0 0 1 15.6929-10.1144c2.219-.69 1.272-4.1886-.9635-3.4939a38.8674 38.8674 0 0 0 -15.6328 9.3177 24.0249 24.0249 0 0 0 -11.39-9.2876 22.9727 22.9727 0 0 0 -17.42.4363 23.2812 23.2812 0 0 0 -5.3007 3.1531 70.0245 70.0245 0 0 0 -4.7406-19.083 78.8855 78.8855 0 0 0 -29.6845-36.1593 71.8691 71.8691 0 0 0 -21.3622-9.5536c-8.5322-2.21-18.3182-3.2823-26.6688.1769a26.755 26.755 0 0 0 -3.2433 1.5845 1.8128 1.8128 0 0 0 1.8288 3.1287z"/><path d="m345.2276 441.0158a45.5157 45.5157 0 0 1 34.5624-10.8409 44.0076 44.0076 0 0 1 30.0265 17.2142 44.6762 44.6762 0 0 1 8.2734 18.0246 1.83 1.83 0 0 0 3.3111.4328c6.2024-11.3014 20.822-16.1581 32.9343-12.7049a24.47 24.47 0 0 1 9.2794 4.9286 1.8326 1.8326 0 0 0 2.8447-.3667c3.2557-6.7957 8.0906-13.0234 14.6308-16.9236a25.176 25.176 0 0 1 20.5638-2.6088 19.7138 19.7138 0 0 1 9.494 6.486 1.8226 1.8226 0 0 0 3.0275-.8 99.1208 99.1208 0 0 1 34.75-53.8136 94.9858 94.9858 0 0 1 15.2459-9.8065c2.07-1.0733.2406-4.201-1.8287-3.1284a100.2867 100.2867 0 0 0 -26.6334 20.1369 102.9236 102.9236 0 0 0 -18.7381 27.6583 100.5664 100.5664 0 0 0 -5.4593 14.8478 25.8552 25.8552 0 0 0 -18.7782-6.3049c-8.3294.4705-15.8739 4.7169-21.5025 10.7394a45.9122 45.9122 0 0 0 -6.9572 9.8308c-11.0426-7.9349-27.1966-7.2007-38.0133.93a29.7906 29.7906 0 0 0 -5.69 5.5821 49.4015 49.4015 0 0 0 -20.1433-26.7125 47.594 47.594 0 0 0 -37.8771-5.91 48.259 48.259 0 0 0 -19.885 10.5466c-1.7483 1.5502.8215 4.1047 2.5623 2.5627z"/><path d="m601.8917 366.8272c9.4953-26.1824 34.8727-44.9617 62.1388-48.836a69.2136 69.2136 0 0 1 40.3627 6.37 79.238 79.238 0 0 1 31.0473 27.8924c8.6826 13.3854 13.3754 29.24 12.37 45.2306-.1044 1.6582 2.0049 2.2679 3.0923 1.2814 11.0479-10.0266 29.4876-8.5718 40.4305.8786a26.1941 26.1941 0 0 1 7.2308 9.86 1.839 1.839 0 0 0 3.3111.4328c4.5984-7.9638 11.1753-14.9646 19.599-18.8861a29.0606 29.0606 0 0 1 24.6527-.1439 22.8543 22.8543 0 0 1 10.1079 9.1845 1.8314 1.8314 0 0 0 3.3105-.4328 67.27 67.27 0 0 1 29.2682-40.562 64.0178 64.0178 0 0 1 13.0794-6.3451c2.186-.7654 1.2454-4.2664-.9635-3.4933a70.9445 70.9445 0 0 0 -39.5389 34.9121 68.803 68.803 0 0 0 -4.3166 10.7843c-4.9716-6.0939-12.62-9.5725-20.4735-10.2453-10.0153-.8586-19.6167 3.3836-27.02 9.9245a52.3356 52.3356 0 0 0 -9.093 10.6581c-7.5605-13.5423-25.0979-19.9139-39.9658-15.7867a30.1847 30.1847 0 0 0 -8.9657 4.1733 78.2109 78.2109 0 0 0 -10.2217-38.6732 83.8768 83.8768 0 0 0 -30.6139-31.3522 72.87 72.87 0 0 0 -42.2084-9.7682 83.2468 83.2468 0 0 0 -40.3851 14.3667c-11.8752 8.1324-21.808 19.3141-27.6766 32.5191q-1.1154 2.51-2.0521 5.0926c-.7964 2.1966 2.7034 3.1427 3.4936.9638z"/><path d="m914.7217 367.1415a1.8238 1.8238 0 0 0 2.2284-1.2649c1.3893-10.2418 4.0895-20.4417 9.1243-29.5259a51.6643 51.6643 0 0 1 19.3189-20.0826 39.56 39.56 0 0 1 14.3366-4.9433 1.8711 1.8711 0 0 0 1.8116-1.8116 1.8219 1.8219 0 0 0 -1.8116-1.8115 46.8312 46.8312 0 0 0 -26.1133 12.8771c-7.6289 7.2508-12.8506 16.647-16.1529 26.5715a97.928 97.928 0 0 0 -4.0075 17.7627 1.8749 1.8749 0 0 0 1.2655 2.2285z"/><path d="m972.2739 450.0487q-58.5439 31.9265-117.0893 63.8513-8.2023 4.4732-16.4041 8.9457a1.5831 1.5831 0 0 0 -.891 1.4984c-.0006.023-.0065.0424-.0065.066v106.71h-57.043v-34.75a1.8376 1.8376 0 0 0 -1.8115-1.8115h-42.676v-51.9477a1.8376 1.8376 0 0 0 -1.8116-1.8116h-41.665v-102.33a1.8376 1.8376 0 0 0 -1.8115-1.8116c-19.43 0-38.8855-1.3209-57.2155 6.4548a82.145 82.145 0 0 0 -48.399 60.2895c-1.7466 9.6586-1.4011 19.5271-1.3545 29.3089h-33.2032c-2.4832 0-5.7825-.5726-8.2179 0-2.6672.6269-4.1586 4.58-5.5538 6.7608q-6.2147 9.7176-12.4295 19.4357-15.56 24.33-31.1192 48.66l-5.2118 8.1476c-.5709.8928-2.219 2.6631-2.6843 3.9091-.3727.0165-.7141.04-.7766.04h-59.961v-43.6873a1.838 1.838 0 0 0 -1.8116-1.8115h-44.6986v-39.86c0-3.0286.582-6.7059 0-9.6927-.4429-2.2721-2.6477-4.2753-4.0253-6.0874l-10.4517-13.7528c-1.4883-1.9578-3.63-6.4029-6.0632-7.3853-2.2331-.9017-6.361-.0649-8.6885-.0649h-29.4144v-179.1722a1.85 1.85 0 0 0 -1.33-1.7466q-42.4932-12.3942-84.9864-24.7877-6.0388-1.762-12.0775-3.5229a1.829 1.829 0 0 0 -2.2933 1.7467v332.5992c0 .8167-.2206 2.1759-.1958 3.2916h-44.7132v-29.36a1.8376 1.8376 0 0 0 -1.8116-1.8115h-49.3861v-26.2833c0-10.5909.8044-21.2349-3.6979-31.1564a41.4538 41.4538 0 0 0 -37.29-23.9563c-8.5647-.1156-17.1388 0-25.7041 0h-29.4874a1.8376 1.8376 0 0 0 -1.8115 1.8116v194.89a1.7124 1.7124 0 0 0 .0761.4794 1.686 1.686 0 0 0 1.7354 1.6317 1.7328 1.7328 0 0 0 1.0066-.3h87.5168a1.8421 1.8421 0 0 0 1.7467-2.2933c-1.3634-9.1025 7.8883-16.0715 15.6805-9.8473a1.837 1.837 0 0 0 3.0275-.799c2.74-9.9682 9.8555-22.8288 22.3122-19.1a1.8221 1.8221 0 0 0 2.2284-1.2649c2.5351-15.4152 20.6617-21.9731 32.1931-11.1257a1.8381 1.8381 0 0 0 2.8453-.3668c5.1356-7.9237 14.2794-20.3373 25.3066-15.062a17.3048 17.3048 0 0 1 6.2991 5.6481c.8462 1.1269 1.5184 2.3417 2.8535 2.9768 2.8187 1.3409 5.2318-.7306 7.0073-2.7108 3.3583-3.7452 6.1741-7.0433 10.8568-9.2039a25.7585 25.7585 0 0 1 14.8143-2.0876c10.3662 1.6872 18.4285 9.9882 20.7837 20.0508a1.831 1.831 0 0 0 3.3111.4322c3.9038-6.9236 12.5958-10.66 20.1946-7.6636 7.577 2.9879 11.4377 11.6641 9.53 19.3814a1.8259 1.8259 0 0 0 3.0275 1.7626c3.9586-3.7293 9.3679-6.4112 14.93-5.3409 5.9017 1.1358 10.5756 6.6441 9.4416 12.8058-.2872 1.5579 1.7991 3.3441 3.0275 1.7626 6.5049-8.3748 19.1785-1.9319 15.7931 8.281-.6634 2.002 2.25 3.0906 3.3111 1.3958a9.3784 9.3784 0 0 1 13.0222-3.1218c3.6655 2.4266 7.0964 8.419 5.1887 12.7645a1.8372 1.8372 0 0 0 1.5645 2.7261h126.5495a1.8451 1.8451 0 0 0 1.8115-1.8115c.2665-7.005 9.4781-15.999 16.3457-10.9341a1.8266 1.8266 0 0 0 2.6607-1.0827c2.3375-7.3534 11.6835-10.0861 17.8028-5.6427a1.83 1.83 0 0 0 2.479-.65c4.6828-7.9874 16.3734-9.74 23.1449-3.3783.8857.8326 2.824.63 3.0275-.7991 2.4666-17.3074 22.7473-25.1409 35.901-13.1937a1.843 1.843 0 0 0 2.8453-.3668c6.2436-9.0135 13.5-19.2181 25.1427-21.0379a26.8824 26.8824 0 0 1 26.7018 12.2515 1.8365 1.8365 0 0 0 3.1289 0c7.1689-10.2831 18.366-19.1868 31.4471-19.3007 11.7892-.1026 23.3507 8.057 25.1439 20.0136.22 1.4677 2.1152 1.58 3.0275.799 14.7783-12.6559 37.4649-.1114 34.3855 19.1857-.2211 1.3834 1.2272 3.0552 2.6613 2.0462 6.9985-4.9257 15.0042-10.3226 23.9162-10.352 7.505-.0248 15.1928 4.23 16.8781 11.9259a1.8233 1.8233 0 0 0 3.0275.799c6.8-7.6418 20.0961-6.7767 25.6263 1.95a1.8282 1.8282 0 0 0 2.8452.3662c6.6046-7.929 20.2843-6.3509 24.8562 2.9255a1.8278 1.8278 0 0 0 2.8452.3668c6.7992-6.5627 19.54-3.7522 22.7586 5.2194a1.8332 1.8332 0 0 0 2.6613 1.0826c6.1009-4.05 19.4763-11.4972 23.7215-.8285a1.8461 1.8461 0 0 0 3.0275.799c5.0548-3.9621 17.1406-.112 15.5378 7.3541a1.8356 1.8356 0 0 0 1.7467 2.2933h32.8942a1.7353 1.7353 0 0 0 1.0078.3 1.6879 1.6879 0 0 0 1.7354-1.6311 1.735 1.735 0 0 0 .0761-.48v-258.2512a1.8306 1.8306 0 0 0 -2.7261-1.5644zm-279.4257 191.13h-.2754v-13.3679h13.3678v13.3677zm13.0924-64.0435h-13.3678v-13.3679h13.3678v13.3677zm0 32.022h-13.3678v-13.3685h13.3678v13.3683zm-46.4053-45.39h13.3683v13.3678h-13.3683v-13.3677zm0 32.0214h13.3683v13.3684h-13.3683v-13.3683zm0 32.2969v-.2748h13.3683v13.3677h-13.3683zm-19.6692 13.0929h-13.3677v-13.3676h13.3677v13.3677zm0-32.0215h-13.3677v-13.3682h13.3677v13.3683zm-13.3677-45.39h13.3677v13.3681h-13.3677v-13.3677zm-19.67 77.4112h-13.3675v-13.3673h13.3677v13.3677zm0-64.0435h-13.3675v-13.3673h13.3677v13.3677zm0 32.022h-13.3675v-13.3679h13.3677v13.3683zm-33.0369 0h-13.3681v-13.3679h13.3683v13.3683zm0-32.022h-13.3681v-13.3673h13.3683v13.3677zm-13.3683 50.9506v-.2748h13.3683v13.3677h-13.3681zm-268.0485-44.4147h-46.5061c-.1321 0-.2653-.0029-.3986-.0059v-2.9065h50.0713c.1321 0 .2654.0029.3987.0059v2.9065zm0-20.2588h-46.5061c-.1321 0-.2653-.003-.3986-.0059v-2.9058h50.0713c.1321 0 .2654.0029.3987.0059v2.906zm0-20.2583h-46.5061c-.1321 0-.2653-.003-.3986-.0059v-2.9066h50.0713c.1321 0 .2654.0029.3987.0059v2.9066zm0-20.2589h-46.5061c-.1321 0-.2653-.0029-.3986-.0059v-2.906h50.0713c.1321 0 .2654.003.3987.0059v2.906zm0-20.2589h-46.5061c-.1321 0-.2653-.0029-.3986-.0059v-2.906h50.0713c.1321 0 .2654.003.3987.0059v2.906zm0-20.2582h-46.5061c-.1321 0-.2653-.003-.3986-.0059v-2.906h50.0713c.1321 0 .2654.0029.3987.0058v2.9061zm0-20.2589h-46.5061c-.1321 0-.2653-.003-.3986-.0059v-2.906h50.0713c.1321 0 .2654.0029.3987.0059v2.906zm0-20.2583h-46.5061c-.1321 0-.2653-.003-.3986-.0059v-2.9066h50.0713c.1321 0 .2654.003.3987.0059v2.9064zm0-20.2589h-46.5061c-.1321 0-.2653-.0029-.3986-.0059v-2.906h50.0713c.1321 0 .2654.003.3987.0059v2.906zm0-20.2583h-46.5061c-.1321 0-.2653-.0029-.3986-.0059v-2.9066h50.0713c.1321 0 .2654.003.3987.0059v2.9066zm0-20.2588h-46.5061c-.1321 0-.2653-.003-.3986-.0059v-2.906h50.0713c.1321 0 .2654.0029.3987.0059v2.906zm0-20.2583h-46.5061c-.1321 0-.2653-.003-.3986-.0059v-2.9066h50.0713c.1321 0 .2654.0029.3987.0059v2.9066zm3.5653-20.2589h-50.0714c-.1321 0-.2653-.003-.3986-.0059v-2.906h50.0713c.1321 0 .2654.0029.3987.0059zm-50.47 260.45h50.0713c.1321 0 .2654.003.3987.0059v2.906h-50.0714c-.1321 0-.2653-.0029-.3986-.0059zm241.2814 18.6473c-.0212-.0407-.2076-.0555-.4535-.056.1621-.1529.3232-.1947.4535.0559z"/></svg>