<?xml version="1.0" encoding="UTF-8" standalone="no"?>
<svg
   version="1.1"
   width="693"
   height="572.5246"
   id="svg113"
   sodipodi:docname="org.svg"
   inkscape:version="1.3.2 (091e20e, 2023-11-25)"
   xmlns:inkscape="http://www.inkscape.org/namespaces/inkscape"
   xmlns:sodipodi="http://sodipodi.sourceforge.net/DTD/sodipodi-0.dtd"
   xmlns="http://www.w3.org/2000/svg"
   xmlns:svg="http://www.w3.org/2000/svg">
  <defs
     id="defs113" />
  <sodipodi:namedview
     id="namedview113"
     pagecolor="#ffffff"
     bordercolor="#000000"
     borderopacity="0.25"
     inkscape:showpageshadow="2"
     inkscape:pageopacity="0.0"
     inkscape:pagecheckerboard="true"
     inkscape:deskcolor="#d1d1d1"
     inkscape:zoom="0.50287826"
     inkscape:cx="166.04416"
     inkscape:cy="269.44891"
     inkscape:window-width="1392"
     inkscape:window-height="942"
     inkscape:window-x="0"
     inkscape:window-y="25"
     inkscape:window-maximized="0"
     inkscape:current-layer="svg113" />
  <path
     d="m 283.99908,91.683154 c 9.41753,1.67711 18.71537,1.78009 28.25,1.75 0.72995,-0.001 1.4599,-0.002 2.21197,-0.003 6.55952,-0.02 12.93756,-0.0654 19.41303,-1.24683 14.07815,-0.72966 14.07815,-0.72966 17.875,2.6875 1.40944,2.89719 1.20344,5.12703 1.125,8.312496 1.04156,-0.13277 2.08312,-0.26555 3.15625,-0.40234 1.44789,-0.17864 2.8958,-0.35701 4.34375,-0.53516 0.67676,-0.087 1.35352,-0.17402 2.05078,-0.26367 16.70825,-2.032086 33.43108,-1.95727 50.23609,-1.9292 3.49699,0.006 6.99391,0.002 10.49091,-0.004 3.35403,-0.004 6.70803,-0.001 10.06206,10e-4 1.25708,-0.002 2.51415,-0.004 3.80931,-0.006 1.14953,0.003 2.29906,0.006 3.48342,0.01 1.01541,7.9e-4 2.03083,0.002 3.07701,0.002 2.29042,0.1272 2.29042,0.1272 3.29042,1.1272 0.0643,2.65325 0.0662,5.28121 0.0273,7.93359 -0.0143,1.68668 -0.028,3.37337 -0.0413,5.06006 -0.008,0.88919 -0.0166,1.77838 -0.0252,2.69452 -0.14914,17.51733 0.0955,34.9044 2.29179,52.31504 0.92028,7.86895 0.87442,15.72053 0.84496,23.62961 -0.002,1.48787 -0.003,2.97573 -0.004,4.4636 -0.004,3.88298 -0.0136,7.76592 -0.0247,11.64889 -0.0103,3.97552 -0.0148,7.95105 -0.0198,11.92657 -0.0107,7.77606 -0.0277,15.55209 -0.0488,23.32813 2.94209,-0.0145 2.94209,-0.0145 5.88417,-0.029 9.6064,0.13163 20.45724,1.09124 27.95567,7.63446 3.34045,3.56052 4.9156,6.38104 5.16016,11.39453 0.54785,-0.0722 1.0957,-0.14438 1.66016,-0.21875 9.49005,-1.11103 18.96194,-1.23926 28.47094,-0.32104 13.32726,1.28018 26.48904,1.69117 39.86499,1.59448 0.82799,-0.005 1.65597,-0.0107 2.50904,-0.0162 7.73205,-0.0525 15.46373,-0.13114 23.19531,-0.23037 4.28341,-0.0539 8.56661,-0.0877 12.8503,-0.10974 1.60702,-0.0123 3.21401,-0.0321 4.82084,-0.0602 19.67127,-0.34157 19.67127,-0.34157 27.32787,5.70356 4.96193,5.35392 5.65921,11.90655 5.49098,18.87625 -0.18338,2.67892 -0.61444,5.13865 -1.1709,7.76245 -1.22909,6.51822 -1.42846,12.96372 -1.58203,19.58203 -0.0597,2.31391 -0.12332,4.62773 -0.19141,6.94141 -0.0239,1.00877 -0.0478,2.01754 -0.0725,3.05688 -0.17384,2.43925 -0.17384,2.43925 -1.17384,4.43925 -0.14532,1.38737 -0.236,2.7807 -0.29712,4.17432 -0.04,0.86074 -0.0799,1.72148 -0.12111,2.6083 -0.0579,1.39538 -0.0579,1.39538 -0.11693,2.81894 -0.043,0.9516 -0.0859,1.9032 -0.13023,2.88364 -0.13661,3.04643 -0.26693,6.09309 -0.39711,9.1398 -0.0914,2.06252 -0.18318,4.12502 -0.27539,6.1875 -0.22544,5.0623 -0.44525,10.12482 -0.66211,15.1875 2.54112,0.33801 5.08277,0.67053 7.625,1 1.06928,0.14309 1.06928,0.14309 2.16016,0.28906 7.27402,1.22736 7.27402,1.22736 14.21484,-0.28906 4.11913,-0.5617 5.73293,-0.16629 9.3125,2.0625 3.21555,3.51468 3.77048,5.20761 3.6875,9.9375 -1.67096,4.73438 -3.82019,7.27429 -8,10 -3.69922,0.57422 -3.69922,0.57422 -7.6875,0.6875 -4.803,-0.0327 -4.803,-0.0327 -9.3125,1.3125 -1.06541,-0.0174 -1.06541,-0.0174 -2.15234,-0.0352 -11.03622,-0.10835 -19.54981,5.75576 -28.84766,11.03516 -13.75896,7.66521 -29.01549,12.94722 -44.4375,16.0625 -6.91181,1.42611 -10.741,3.87327 -15.5625,8.9375 -6.57993,5.75209 -14.15283,7.86409 -22.35547,10.29297 -5.31723,1.57806 -10.56032,3.34609 -15.8103,5.13354 -31.66698,10.77665 -31.66698,10.77665 -48.14673,10.69849 -0.80373,0.004 -1.60746,0.008 -2.43555,0.0117 -3.92453,-0.006 -7.75716,-0.1469 -11.65429,-0.6211 -5.28016,-0.64187 -10.53228,-0.81139 -15.84766,-0.89062 -0.9668,-0.0374 -1.93359,-0.0748 -2.92969,-0.11328 -5.68116,-0.15274 -5.68116,-0.15274 -10.42969,2.63672 -0.7889,0.94101 -1.57781,1.88203 -2.39062,2.85156 -5.74475,4.48248 -11.81682,7.4969 -18.625,10 -0.90025,0.33612 -1.8005,0.67225 -2.72803,1.01855 -10.35394,3.75632 -20.9389,6.45139 -31.64697,8.98145 -1.28898,0.31759 -1.28898,0.31759 -2.604,0.6416 -25.83378,6.34408 -49.99642,1.58795 -75.29053,-5.53613 -3.69128,-1.03034 -7.39436,-1.74242 -11.16797,-2.41797 -7.41277,-1.51033 -13.92143,-4.59162 -20.73438,-7.77344 -3.32434,-1.54651 -6.65398,-2.83095 -10.14062,-3.97656 -6.40823,-2.22508 -13.57266,-5.71934 -17.78516,-11.16406 -3.64598,-2.83924 -7.3238,-1.92626 -11.77734,-1.64844 -19.64036,0.49046 -34.54496,-7.2477 -51.34375,-16.78516 -4.91807,-2.75093 -9.88348,-5.00486 -15.11426,-7.09008 -3.20357,-1.31614 -6.30833,-2.77927 -9.43261,-4.2732 -6.62885,-3.08965 -13.40807,-5.3575 -20.35938,-7.60156 -11.2327,-3.7258 -21.741518,-8.13989 -32.305658,-13.52783 -0.96003,-0.48711 -1.92006,-0.97421 -2.90918,-1.47608 -0.83137,-0.43385 -1.66273,-0.8677 -2.51929,-1.31469 -4.19393,-1.76101 -8.46569,-2.15124 -12.97681,-2.30249 -0.80179,-0.0329 -1.60359,-0.0658 -2.42968,-0.0996 -1.64831,-0.0609 -3.29676,-0.11823 -4.94532,-0.17188 -5.33941,-0.22675 -10.00493,-1.09839 -15.16406,-2.48242 -1.82744,-0.25488 -3.66124,-0.47177 -5.5,-0.625 -0.85594,-0.0748 -1.71187,-0.14953 -2.59375,-0.22656 -0.62906,-0.049 -1.25812,-0.098 -1.90625,-0.14844 -0.625,-2.375 -0.625,-2.375 -1,-5 2.84463,-2.84463 6.19709,-3.13585 10,-4 1.35782,-0.34091 2.71462,-0.68588 4.07031,-1.03516 1.35157,-0.34244 2.70313,-0.68489 4.05469,-1.02734 0.67676,-0.17338 1.35352,-0.34676 2.05078,-0.52539 3.92294,-0.99022 7.82364,-1.80766 11.82422,-2.41211 -0.17016,-1.15887 -0.34031,-2.31773 -0.51562,-3.51172 -1.65941,-11.58554 -3.06811,-23.19415 -4.34461,-34.8273 -0.17359,-1.58072 -0.34875,-3.16128 -0.52563,-4.74164 -1.2596,-11.29445 -2.11668,-22.56577 -2.61414,-33.91934 -0.0461,-1.02255 -0.0922,-2.0451 -0.13965,-3.09863 -0.0903,-2.38464 -0.14118,-4.76534 -0.17285,-7.15137 -0.029,-0.77473 -0.058,-1.54945 -0.0879,-2.34766 -0.0675,-6.09264 1.66992,-9.52522 5.92773,-14.01172 5.95551,-4.8172 11.18323,-5.83388 18.60157,-6.51171 1.37207,-0.12707 1.37207,-0.12707 2.77186,-0.2567 10.82022,-0.89975 21.632878,-0.81272 32.481858,-0.71569 6.04554,0.0527 12.09117,0.069 18.1369,0.0857 1.17524,0.004 2.35049,0.007 3.56134,0.0113 9.35543,0.0196 18.69461,-0.11517 28.04413,-0.44099 1.17554,-0.0394 2.35109,-0.0788 3.56226,-0.11938 5.29461,-0.14378 5.29461,-0.14378 10.50875,-0.95205 3.41335,-0.59779 6.65298,-0.58594 10.11649,-0.55357 1.25426,0.009 2.50852,0.018 3.80078,0.0273 1.42893,0.0174 1.42893,0.0174 2.88672,0.0352 -10e-4,-0.81856 -10e-4,-0.81856 -0.003,-1.65366 -0.0223,-13.39377 -0.0387,-26.78754 -0.049,-40.18132 -0.005,-6.47762 -0.0122,-12.95523 -0.0236,-19.43284 -0.011,-6.27 -0.0169,-12.53998 -0.0194,-18.80998 -0.002,-2.37296 -0.005,-4.74591 -0.0109,-7.11886 -0.0263,-11.88855 0.0541,-23.75545 0.54933,-35.63513 0.0389,-0.95393 0.0777,-1.90786 0.11775,-2.8907 0.19648,-4.19425 0.48041,-8.17553 1.43865,-12.27751 0.13156,-1.97441 0.22242,-3.95178 0.28125,-5.92969 0.0374,-1.12535 0.0748,-2.2507 0.11328,-3.41016 0.0348,-1.1666 0.0696,-2.33321 0.10547,-3.53516 0.41879,-13.94407 0.41879,-13.94407 1.5,-20.124996 0.77489,-0.0198 1.54978,-0.0396 2.34815,-0.0601 22.70647,-0.17133 22.70647,-0.17133 44.83937,-4.56492 10.97504,-3.14489 22.86428,-1.8664 33.9375,0.125 z"
     fill="#020302"
     id="path2" />
  <path
     d="m 646.87408,395.18316 c -6,3 -6,3 -8.15234,2.96484 -11.03622,-0.10835 -19.54981,5.75576 -28.84766,11.03516 -13.75896,7.66521 -29.01549,12.94722 -44.4375,16.0625 -6.91181,1.42611 -10.741,3.87327 -15.5625,8.9375 -6.57993,5.75209 -14.15283,7.86409 -22.35547,10.29297 -5.31723,1.57806 -10.56032,3.34609 -15.8103,5.13354 -31.66698,10.77666 -31.66698,10.77666 -48.14673,10.69849 -1.2056,0.006 -1.2056,0.006 -2.43555,0.0117 -3.92453,-0.006 -7.75716,-0.1469 -11.65429,-0.62109 -5.28016,-0.64188 -10.53228,-0.8114 -15.84766,-0.89063 -1.4502,-0.0561 -1.4502,-0.0561 -2.92969,-0.11328 -5.68116,-0.15274 -5.68116,-0.15274 -10.42968,2.63672 -0.78891,0.94101 -1.57782,1.88203 -2.39063,2.85156 -5.74475,4.48249 -11.81682,7.4969 -18.625,10 -0.90025,0.33612 -1.8005,0.67225 -2.72803,1.01856 -10.35394,3.75633 -20.9389,6.45139 -31.64697,8.98146 -1.28898,0.31759 -1.28898,0.31759 -2.604,0.6416 -25.83378,6.34408 -49.99642,1.58795 -75.29053,-5.53613 -3.69128,-1.03034 -7.39436,-1.74242 -11.16797,-2.41797 -7.41277,-1.51033 -13.92143,-4.59162 -20.73437,-7.77344 -3.32435,-1.54651 -6.65399,-2.83095 -10.14063,-3.97656 -6.40823,-2.22508 -13.57266,-5.71934 -17.78516,-11.16406 -3.64598,-2.83924 -7.3238,-1.92626 -11.77734,-1.64844 -19.64036,0.49046 -34.54496,-7.2477 -51.34375,-16.78516 -4.91807,-2.75093 -9.88348,-5.00486 -15.11426,-7.09008 -3.20357,-1.31614 -6.30833,-2.77927 -9.43261,-4.2732 -6.62891,-3.08967 -13.40817,-5.35708 -20.35938,-7.60156 -14.03127,-4.66219 -27.087898,-10.61092 -40.249998,-17.375 3.97354,-1.16803 6.5141,-0.59377 10.5625,0.375 5.49066,1.20099 10.894318,1.95783 16.514888,2.22266 0.80112,0.0394 1.60223,0.0789 2.42762,0.11949 12.48975,0.53512 24.99898,0.38992 37.49733,0.35131 3.74163,-0.0102 7.48327,-0.0135 11.22491,-0.0174 10.28737,-0.0119 20.5747,-0.034 30.86205,-0.0562 9.43292,-0.0204 18.86583,-0.0384 28.29876,-0.0482 3.69939,-0.004 7.39875,-0.0103 11.09812,-0.0217 13.69594,-0.042 27.3803,-0.0391 41.06778,0.51658 0.96389,0.039 1.92779,0.078 2.9209,0.11814 4.90679,0.22842 9.67365,0.67787 14.52514,1.44045 1.67561,0.083 3.35358,0.13044 5.03125,0.13281 1.33998,0.002 1.33998,0.002 2.70703,0.004 1.36705,-0.006 1.36705,-0.006 2.76172,-0.0117 0.91137,0.004 1.82273,0.008 2.76172,0.0117 5.02985,-0.007 9.75517,-0.41259 14.73828,-1.13672 4.18455,-0.27109 8.37195,-0.41668 12.5625,-0.5625 1.07186,-0.0432 2.14371,-0.0864 3.24805,-0.13086 22.13189,-0.80549 44.31455,-0.22193 66.45312,0.0657 4.29422,0.0556 8.58849,0.10556 12.88279,0.15441 3.34588,0.039 6.6917,0.0821 10.03752,0.12622 1.58429,0.0202 3.1686,0.039 4.75292,0.0561 2.2065,0.0243 4.41285,0.0543 6.61925,0.0856 1.87237,0.0233 1.87237,0.0233 3.78256,0.0471 3.94525,0.17049 7.74783,0.639 11.66129,1.15822 4.99749,0.22072 9.99817,0.19484 15,0.1875 0.76755,-6e-4 1.53509,-0.001 2.3259,-0.002 40.16319,-0.0828 80.38969,-1.21204 120.34318,-5.4304 5.82935,-0.61395 11.6621,-1.15189 17.50279,-1.64589 0.8087,-0.0686 1.6174,-0.1373 2.4506,-0.20803 3.07386,-0.25989 6.14785,-0.51817 9.2222,-0.77241 2.02344,-0.16822 4.04643,-0.34178 6.06939,-0.51566 1.13389,-0.095 2.26779,-0.18997 3.43604,-0.28784 8.35717,-1.0264 16.03852,-1.9276 24.6499,-0.32548 z"
     fill="#50eaa8"
     id="path3" />
  <path
     d="m 260.31158,101.93315 c 1.35448,-0.0116 1.35448,-0.0116 2.73633,-0.0234 5.65323,0.0164 10.3851,0.7784 15.82617,2.27344 2.59566,0.42249 5.14006,0.78371 7.75,1.0625 0.76353,0.0823 1.52706,0.16468 2.31372,0.24951 14.90671,1.41568 29.97392,1.38877 44.93628,1.68799 0.39259,57.68345 0.39259,57.68345 -0.9375,81.87501 -0.0654,1.21032 -0.0654,1.21032 -0.13202,2.4451 -0.70083,12.62978 -0.70083,12.62978 -1.45782,16.09128 -0.66578,3.64626 -0.59534,7.25963 -0.57032,10.9519 0.001,0.79198 0.003,1.58397 0.004,2.39995 0.006,2.51646 0.0181,5.03283 0.0309,7.54927 0.005,1.71159 0.01,3.42318 0.0137,5.13477 0.011,4.18428 0.0282,8.36849 0.0488,12.55273 -9.20831,0.0311 -18.41664,0.0512 -27.625,0.0625 -0.69016,8.6e-4 -1.38033,0.002 -2.0914,0.003 -28.77051,0.0315 -57.5203,-0.40053 -86.2836,-1.06509 -1.72327,-3.44654 -1.16293,-7.4174 -1.16797,-11.21094 -0.004,-0.94372 -0.008,-1.88744 -0.0124,-2.85975 -0.01,-3.10148 -0.009,-6.20283 -0.007,-9.30431 -3.9e-4,-1.05245 -7.8e-4,-2.1049 -0.001,-3.18924 0.006,-14.31463 0.28602,-28.58248 1.12619,-42.87326 0.0652,-1.11565 0.0652,-1.11565 0.13175,-2.25385 0.34455,-5.74378 0.69231,-11.47068 1.43295,-17.17974 0.5675,-4.39127 0.79937,-8.77402 0.9978,-13.19532 0.0406,-0.83772 0.0812,-1.67545 0.12305,-2.53856 0.17193,-3.54772 0.33685,-7.09576 0.50195,-10.64381 0.12231,-2.60601 0.24855,-5.21181 0.375,-7.81763 0.0354,-0.79185 0.0709,-1.5837 0.10743,-2.39956 0.22254,-4.57008 0.67244,-9.01485 1.39257,-13.53404 0.99013,-0.0752 0.99013,-0.0752 2.00025,-0.15186 3.02138,-0.23361 6.04177,-0.47828 9.06225,-0.72314 1.03834,-0.0786 2.07668,-0.15727 3.14649,-0.23828 4.29916,-0.35485 8.23422,-0.72331 12.38476,-1.94141 4.6517,-1.29136 9.04087,-1.23668 13.84374,-1.19572 z"
     fill="#f9f9f9"
     id="path4" />
  <path
     d="m 360.87408,270.18316 c 8.25213,-0.0236 16.50425,-0.0411 24.7564,-0.0518 3.83528,-0.005 7.67054,-0.012 11.50581,-0.0236 15.52961,-0.0456 31.04385,-0.0206 46.56591,0.51685 1.72377,0.0585 1.72377,0.0585 3.48237,0.11815 4.99337,0.19589 9.76394,0.55028 14.68951,1.44044 0.098,0.80824 0.19594,1.61648 0.29688,2.44922 0.94281,8.16159 0.94281,8.16159 5.70312,14.55078 2.61818,1.33299 2.61818,1.33299 5,2 0,0.66 0,1.32 0,2 -0.47832,0.45286 -0.95665,0.90573 -1.44946,1.37231 -1.86886,1.96185 -2.04309,3.01068 -2.35913,5.67066 -0.15771,1.22034 -0.15771,1.22034 -0.31861,2.46533 -0.1024,0.88414 -0.2048,1.76827 -0.3103,2.6792 -0.24432,1.91836 -0.49184,3.83632 -0.74219,5.75391 -0.12987,0.99918 -0.25974,1.99836 -0.39355,3.02783 -0.55276,3.92557 -1.25523,7.81654 -1.9607,11.71704 -1.97824,10.9987 -3.14733,21.89599 -3.78271,33.05444 -1.0461,17.62203 -1.0461,17.62203 -3.68335,20.25928 -3.00003,0.14178 -5.99757,0.0423 -9,0 0.19698,-1.14723 0.19698,-1.14723 0.39795,-2.31763 1.73095,-10.93171 2.27091,-21.82373 2.72705,-32.86987 0.0414,-0.96429 0.0827,-1.92858 0.12534,-2.92209 0.51014,-11.98042 0.95979,-23.96128 1.06216,-35.95291 0.0176,-1.09143 0.0351,-2.18287 0.0532,-3.30737 -8.1e-4,-0.98267 -0.002,-1.96534 -0.002,-2.97779 0.003,-0.83539 0.006,-1.67078 0.009,-2.53149 -0.46756,-2.66127 -1.23354,-3.50949 -3.3727,-5.12089 -3.3676,-1.17164 -3.3676,-1.17164 -7,-1 -2.93958,2.01515 -4.71405,3.63779 -5.46472,7.21381 -0.19622,2.79084 -0.2272,5.54315 -0.20716,8.34088 -0.0124,1.04247 -0.0249,2.08494 -0.0377,3.15901 -0.0358,3.38733 -0.0381,6.7738 -0.0405,10.1613 -0.0194,2.31619 -0.0414,4.63235 -0.0661,6.94849 -0.0481,4.59446 -0.0866,9.18884 -0.1189,13.78344 -0.0707,8.36525 -0.32391,16.72104 -0.62744,25.08057 -0.0442,1.27923 -0.0883,2.55847 -0.13379,3.87646 -0.098,2.81213 -0.20023,5.62411 -0.30372,8.43604 -4.29,0 -8.58,0 -13,0 0.15469,-1.97227 0.30937,-3.94453 0.46875,-5.97656 0.63145,-8.83361 0.86521,-17.66531 1.0835,-26.51709 0.33637,-13.34678 0.33637,-13.34678 0.95947,-17.49854 0.85139,-5.83241 0.74995,-11.75319 0.78345,-17.63623 0.0116,-1.42165 0.0322,-2.84325 0.0615,-4.26465 0.0426,-2.0724 0.0588,-4.14352 0.0691,-6.21631 0.0146,-1.22686 0.0292,-2.45373 0.0442,-3.71777 -0.21859,-3.24699 -0.21859,-3.24699 -2.30908,-5.57226 -2.12613,-1.82862 -2.12613,-1.82862 -5.16089,-2.10059 -3.72715,0.62119 -4.69403,1.55149 -7,4.5 -0.53534,2.83763 -0.53534,2.83763 -0.35547,6.03516 0.0181,1.26086 0.0361,2.52173 0.0547,3.8208 0.0185,0.68241 0.0371,1.36483 0.0562,2.06793 0.10024,3.75262 0.13145,7.50603 0.17041,11.2597 0.0101,0.82654 0.0202,1.65306 0.0307,2.50464 0.12082,11.98123 -0.19692,23.95902 -0.45645,35.93677 -0.0486,2.32039 -0.097,4.64078 -0.14526,6.96118 -0.11421,5.47138 -0.23465,10.94256 -0.3548,16.41382 -6.93,0 -13.86,0 -21,0 0.38557,-5.1666 0.85522,-10.27182 1.7124,-15.38232 2.12469,-12.84497 2.72772,-25.37157 2.62378,-38.38013 -0.024,-3.22461 -0.0205,-6.44842 -0.0139,-9.6731 -0.006,-2.07227 -0.0127,-4.14454 -0.0215,-6.21679 10e-4,-1.42965 10e-4,-1.42965 0.003,-2.88817 0.1356,-7.79565 0.1356,-7.79565 -3.30358,-14.45949 -4.61127,-0.50163 -4.61127,-0.50163 -8.70726,1.22235 -1.67698,2.30602 -1.64462,3.63392 -1.60158,6.47003 0.007,0.9524 0.0134,1.90479 0.0202,2.88605 0.0326,1.54672 0.0326,1.54672 0.0659,3.12469 0.009,1.06999 0.018,2.13997 0.0272,3.24238 0.0301,3.43516 0.0797,6.86962 0.13292,10.3045 0.37354,26.30201 0.37354,26.30201 -1.44995,37.62451 -0.72919,4.67456 -0.93614,9.34048 -1.11255,14.06299 -0.058,1.32935 -0.058,1.32935 -0.11719,2.68555 -0.0919,2.1254 -0.1758,4.25114 -0.25781,6.37695 -4.29,0 -8.58,0 -13,0 0.11867,-4.3235 0.24294,-8.64679 0.37231,-12.96997 0.0432,-1.46936 0.0849,-2.93876 0.125,-4.4082 0.0581,-2.11757 0.12167,-4.23492 0.18628,-6.3523 0.055,-1.90882 0.055,-1.90882 0.11109,-3.8562 0.17578,-2.92357 0.58169,-5.56233 1.20524,-8.41333 0.0901,-2.0401 0.13012,-4.08292 0.125,-6.125 0.003,-1.03383 0.005,-2.06766 0.008,-3.13281 -0.0138,-2.83453 -0.0138,-2.83453 -1.133,-5.74219 -1.41494,-0.10884 -2.83233,-0.18598 -4.25,-0.25 -0.78891,-0.0464 -1.57781,-0.0928 -2.39063,-0.14063 -3.39785,0.56256 -4.30767,1.62064 -6.35937,4.39063 -0.60739,3.05584 -0.58111,6.07564 -0.57422,9.18359 -0.0142,0.89252 -0.0283,1.78504 -0.0429,2.70461 -0.0419,2.84989 -0.0571,5.69915 -0.0704,8.5493 -0.0291,2.84629 -0.0638,5.69242 -0.10249,8.53859 -0.0224,1.76957 -0.0383,3.53924 -0.0469,5.30893 -0.007,0.80756 -0.0141,1.61512 -0.0213,2.44716 -0.003,0.70519 -0.007,1.41038 -0.0105,2.13694 -0.13129,2.13088 -0.13129,2.13088 -1.13129,7.13088 -8.415,0.495 -8.415,0.495 -17,1 0.33,-2.64 0.66,-5.28 1,-8 0.16465,-2.5822 0.31036,-5.16568 0.4375,-7.75 0.26829,-4.97001 0.73298,-9.78141 1.625,-14.6875 0.8978,-4.99232 1.33993,-9.49184 0.9375,-14.5625 -1.91638,-2.42069 -2.92353,-2.9756 -5.9375,-3.9375 -3.13864,-0.38043 -3.13864,-0.38043 -5.375,1.6875 -2.92488,3.89983 -2.9046,7.44425 -3.15234,12.19141 -0.0786,1.403 -0.1574,2.80599 -0.23633,4.20898 -0.11876,2.19592 -0.23529,4.39192 -0.34839,6.58813 -0.42932,8.21668 -0.95674,16.24168 -2.95044,24.26148 -5.05002,1.0359 -9.87416,1.10252 -15,1 -0.15303,-4.74379 -0.064,-8.85861 0.97266,-13.49268 1.12374,-5.52911 1.46492,-10.94071 1.66015,-16.56982 0.0416,-1.03077 0.0831,-2.06153 0.12595,-3.12354 0.086,-2.1714 0.16812,-4.34296 0.24661,-6.51464 0.11831,-3.26294 0.24876,-6.52522 0.38135,-9.7876 0.38054,-9.64642 0.70023,-19.2953 0.79297,-28.94922 0.0135,-0.74556 0.0269,-1.49112 0.0408,-2.25928 0.005,-1.76926 -0.0979,-3.53821 -0.22049,-5.30322 -1.94332,-2.37994 -1.94332,-2.37994 -5.5,-2.25 -3.55668,-0.12994 -3.55668,-0.12994 -5.5,2.25 -0.37334,2.50813 -0.63302,4.93387 -0.81641,7.45703 -0.0614,0.73998 -0.12277,1.47996 -0.18602,2.24236 -0.19523,2.37043 -0.3782,4.74161 -0.56007,7.11311 -0.18755,2.36056 -0.37768,4.72087 -0.57079,7.08098 -0.11949,1.46887 -0.23543,2.93803 -0.34732,4.4075 -0.21799,2.74425 -0.4624,5.42486 -1.02314,8.12245 -0.48596,2.52314 -0.68966,4.89354 -0.79337,7.45865 -0.04,0.9406 -0.0799,1.8812 -0.12111,2.8503 -0.0579,1.50339 -0.0579,1.50339 -0.11693,3.03715 -0.0645,1.55421 -0.0645,1.55421 -0.13023,3.13982 -0.13607,3.30091 -0.26666,6.60201 -0.39711,9.90315 -0.0914,2.24155 -0.18323,4.48309 -0.27539,6.72461 -0.22484,5.48747 -0.44519,10.9751 -0.66211,16.46289 -5.12584,0.10252 -9.94998,0.0359 -15,-1 0.13712,-0.63059 0.27425,-1.26119 0.41553,-1.91089 1.95358,-10.09933 2.04267,-20.15306 2.20947,-30.40161 0.0352,-1.9069 0.0706,-3.81381 0.1062,-5.7207 0.0687,-3.82821 0.12984,-7.65644 0.1853,-11.48487 0.0622,-4.27179 0.14527,-8.54276 0.23719,-12.81401 0.0578,-2.88799 0.0979,-5.77598 0.1314,-8.66435 0.0269,-1.96665 0.0721,-3.93302 0.11774,-5.89932 0.008,-1.16878 0.0152,-2.33756 0.0229,-3.54175 0.0146,-1.00934 0.0292,-2.01867 0.0442,-3.05859 -0.25186,-2.62875 -0.25186,-2.62875 -2.30127,-4.35938 -3.07909,-1.62501 -4.89799,-1.13995 -8.16866,-0.14453 -2.36225,3.54337 -2.2879,5.19128 -2.37891,9.39844 -0.0342,1.28519 -0.0683,2.57039 -0.10351,3.89453 -0.0272,1.36066 -0.0539,2.72134 -0.0801,4.08203 -0.19612,8.47063 -0.49347,16.88072 -1.19898,25.32471 -0.54058,7.47962 -0.64284,14.98505 -0.84399,22.47998 -0.53451,18.10031 -0.53451,18.10031 -2.39451,21.82031 -6.93,-0.495 -6.93,-0.495 -14,-1 0.11705,-2.83385 0.24363,-5.66681 0.375,-8.5 0.0309,-0.77215 0.0619,-1.5443 0.0937,-2.33984 0.24905,-5.18859 0.81281,-10.25145 1.54687,-15.39454 1.28329,-9.49533 1.35658,-18.9825 1.35499,-28.55175 0.004,-3.00152 0.0411,-6.00166 0.0786,-9.00293 0.006,-1.91927 0.01,-3.83854 0.0117,-5.75782 0.0144,-0.8916 0.0287,-1.78321 0.0436,-2.70184 -0.0239,-5.00284 -0.0239,-5.00284 -2.33799,-9.34601 -2.17324,-1.69736 -2.17324,-1.69736 -5.2915,-1.34277 -3.16675,0.70445 -3.16675,0.70445 -4.875,3.9375 -0.42416,3.06333 -0.42416,3.06333 -0.5625,6.4375 -0.34605,6.2077 -0.34605,6.2077 -0.95703,8.57812 -0.67437,2.78521 -0.6122,5.4353 -0.60547,8.29688 -0.003,1.08926 -0.005,2.17852 -0.008,3.30078 0.0604,3.35202 0.0604,3.35202 0.64868,6.48145 0.57598,4.64617 0.50611,9.10566 0.36304,13.77636 -0.0236,0.92233 -0.0472,1.84466 -0.0716,2.79494 -0.0761,2.924 -0.16036,5.8477 -0.24486,8.77147 -0.0533,1.99152 -0.10601,3.98306 -0.1582,5.97461 -0.1286,4.86282 -0.26448,9.72538 -0.4043,14.58789 -3.3,0 -6.6,0 -10,0 -0.0501,-0.68925 -0.10022,-1.37849 -0.15186,-2.08862 -0.23573,-3.20004 -0.47941,-6.39944 -0.72314,-9.59888 -0.0786,-1.08346 -0.15727,-2.16691 -0.23828,-3.2832 -0.42234,-5.47416 -0.97434,-10.86737 -1.85938,-16.28711 -1.28305,-7.9419 -1.92574,-15.9175 -2.58984,-23.92969 -0.18881,-2.22964 -0.37887,-4.45917 -0.56964,-6.68864 -0.12151,-1.42881 -0.24114,-2.85777 -0.35877,-4.2869 -0.38689,-4.6528 -0.88604,-9.27986 -1.52398,-13.90483 0.026,-3.37617 1.94102,-5.43129 4.01489,-7.93213 1.69967,-5.09902 1.58777,-10.64099 2,-16 29.7,-0.33 59.4,-0.66 90,-1 0.495,14.355 0.495,14.355 1,29 3.03822,6.07644 4.69785,8.46411 10.6875,11.25 7.35189,1.66458 15.64861,1.68157 22.3125,-2.25 3.95863,-4.06611 6.10406,-7.86101 7.75,-13.3125 0.40734,-1.23363 0.81469,-2.46727 1.23437,-3.73828 1.80727,-7.10656 1.71754,-14.65666 2.0159,-21.94922 z"
     fill="#fafafa"
     id="path5" />
  <path
     d="m 351.87408,97.183154 c 0.33,0 0.66,0 1,0 0,1.98 0,3.959996 0,5.999996 1.56234,-0.19916 1.56234,-0.19916 3.15625,-0.40234 1.44789,-0.17864 2.8958,-0.35701 4.34375,-0.53516 0.67676,-0.087 1.35352,-0.17402 2.05078,-0.26367 16.70825,-2.032086 33.43108,-1.95727 50.23608,-1.9292 3.497,0.006 6.99392,0.002 10.49092,-0.004 3.35403,-0.004 6.70803,-10e-4 10.06206,0.001 1.25708,-0.002 2.51415,-0.004 3.80931,-0.006 1.14953,0.003 2.29906,0.006 3.48342,0.01 1.01541,7.9e-4 2.03083,0.002 3.07701,0.002 2.29042,0.12737 2.29042,0.12737 3.29042,1.12737 0.0169,2.45061 -0.0288,4.86921 -0.12109,7.31641 -0.0354,1.09658 -0.0354,1.09658 -0.0716,2.21531 -0.0768,2.34378 -0.16076,4.68725 -0.24486,7.03078 -0.0532,1.58527 -0.10595,3.17057 -0.15821,4.75587 -0.12938,3.89408 -0.26517,7.78789 -0.40429,11.68164 -0.33,0 -0.66,0 -1,0 -0.495,-5.445 -0.495,-5.445 -1,-11 -1.65,-0.33 -3.3,-0.66 -5,-1 0.004,0.80813 0.009,1.61625 0.0135,2.44887 0.0408,7.77517 0.0709,15.5503 0.0902,23.32555 0.0102,3.99329 0.024,7.98649 0.0473,11.97973 0.29163,51.60092 0.29163,51.60092 -3.15089,68.24585 -0.29427,3.60475 -0.50503,7.20997 -0.71875,10.82031 -0.28131,3.17969 -0.28131,3.17969 -1.28131,6.17969 -28.05,0 -56.1,0 -85,0 -0.68043,-23.13447 -0.64376,-45.25639 1.26332,-68.16281 0.70887,-9.10255 0.94752,-18.17437 1.05309,-27.29813 0.0206,-1.52699 0.0416,-3.05398 0.063,-4.58096 0.0545,-3.96835 0.10422,-7.93675 0.15285,-11.90518 0.0507,-4.06977 0.10615,-8.13946 0.16113,-12.20917 0.10667,-7.94787 0.2083,-15.89579 0.30661,-23.843756 z"
     fill="#44d48b"
     id="path6" />
  <path
     d="m 210.87408,297.18316 c 0.12962,6.65351 -0.20249,13.08703 -1.02344,19.6875 -0.21787,1.84082 -0.43573,3.68164 -0.65356,5.52246 -0.1143,0.9471 -0.22859,1.8942 -0.34635,2.87 -2.08195,17.28804 -3.87804,34.53907 -4.97665,51.92004 -4.62,0 -9.24,0 -14,0 0.0105,-1.29212 0.0209,-2.58425 0.0317,-3.91553 0.0361,-4.78203 0.0591,-9.56406 0.0781,-14.34619 0.0101,-2.07196 0.0237,-4.14391 0.041,-6.21582 0.0242,-2.97367 0.0356,-5.94715 0.0444,-8.9209 0.0103,-0.93025 0.0206,-1.8605 0.0313,-2.81894 1.5e-4,-0.86074 3e-4,-1.72148 4.6e-4,-2.6083 0.004,-0.75945 0.009,-1.5189 0.0135,-2.30137 -0.078,-2.11797 -0.078,-2.11797 -2.24052,-3.87295 -3.5,-0.33333 -3.5,-0.33333 -7,0 -2.1625,1.75498 -2.1625,1.75498 -2.24051,3.87295 0.004,0.75945 0.009,1.5189 0.0135,2.30137 1.5e-4,0.86074 3e-4,1.72148 4.6e-4,2.6083 0.0103,0.93025 0.0206,1.8605 0.0313,2.81894 0.004,1.4274 0.004,1.4274 0.009,2.88364 0.0112,3.04673 0.0363,6.09316 0.0617,9.1398 0.01,2.0625 0.0191,4.125 0.0273,6.1875 0.0221,5.06261 0.0566,10.12501 0.0977,15.1875 -4.95,0 -9.9,0 -15,0 0.46406,-3.15562 0.46406,-3.15562 0.9375,-6.375 1.02578,-7.78662 1.50288,-15.5954 1.875,-23.4375 0.065,-1.15097 0.13003,-2.30194 0.19702,-3.48779 0.0446,-1.08298 0.0891,-2.16595 0.13501,-3.28174 0.0449,-0.97171 0.0897,-1.94342 0.13599,-2.94458 -0.0825,-2.51162 -0.0825,-2.51162 -1.59815,-4.32373 -1.76563,-1.45893 -1.76563,-1.45893 -4.7449,-0.96216 -3.03266,0.57898 -3.03266,0.57898 -4.9375,2.8125 -0.23398,3.0697 -0.34963,6.05578 -0.37891,9.12891 -0.017,0.90483 -0.034,1.80967 -0.0515,2.74192 -0.0532,2.89715 -0.0935,5.79429 -0.13209,8.69167 -0.0439,2.90088 -0.0905,5.80164 -0.14281,8.70238 -0.0321,1.80725 -0.0589,3.61461 -0.0802,5.42203 -0.10273,6.20136 -0.10273,6.20136 -1.21446,7.31309 -1.48639,0.15655 -2.97949,0.25067 -4.47266,0.31641 -0.80961,0.0381 -1.61922,0.0762 -2.45337,0.11547 -1.55255,0.0647 -1.55255,0.0647 -3.13647,0.13062 -4.91906,0.21656 -4.91906,0.21656 -9.9375,0.4375 -0.33,-13.2 -0.66,-26.4 -1,-40 -2.31,-0.33 -4.62,-0.66 -7,-1 -2.42141,1.9789 -2.42141,1.9789 -2.22705,5.80713 3.2e-4,1.63984 0.0117,3.27971 0.0317,4.91943 0.004,1.29423 0.004,1.29423 0.009,2.6146 0.0112,2.76142 0.0363,5.52252 0.0617,8.28384 0.01,1.86979 0.0192,3.73958 0.0273,5.60937 0.0204,4.58877 0.0595,9.17684 0.0977,13.76563 -5.61,0 -11.22,0 -17,0 0.0174,-3.77244 0.0174,-3.77244 0.0352,-7.62109 0.008,-2.42587 0.0139,-4.85172 0.0198,-7.27759 0.005,-1.69076 0.0119,-3.38152 0.0205,-5.07227 0.0121,-2.42506 0.0178,-4.85006 0.0222,-7.27514 0.005,-0.76042 0.0103,-1.52085 0.0156,-2.30431 1.9e-4,-1.81693 -0.0513,-3.63373 -0.1133,-5.4496 -1.11167,-1.33188 -1.11167,-1.33188 -3.9375,-1.1875 -3.171429,-0.14529 -3.171429,-0.14529 -5.062499,2.1875 -0.28242,2.43088 -0.28242,2.43088 -0.1875,5.1875 0.006,0.92168 0.0129,1.84336 0.0195,2.79297 0.12237,3.07773 0.12237,3.07773 0.67578,6.32422 0.56608,4.25005 0.60197,8.35441 0.55469,12.63281 -0.0206,2.66062 -0.0413,5.32125 -0.0625,8.0625 -6.93,0 -13.86,0 -21,0 1.80469,-12.11719 1.80469,-12.11719 2.97266,-17.40625 1.48395,-7.32978 1.98171,-14.77675 2.58984,-22.21875 0.0644,-0.76503 0.12885,-1.53006 0.19522,-2.31827 1.120521,-13.33901 1.882661,-26.67386 2.241571,-40.05673 11.29082,-1.24038 22.556238,-1.08293 33.897918,-1.01804 16.51846,0.0889 33.02775,0.0927 49.53958,-0.41946 0.683,-0.0197 1.366,-0.0395 2.0697,-0.0598 34.45001,-1.0241 34.45001,-1.0241 39.4928,1.4973 z"
     fill="#f9f9f9"
     id="path7" />
  <path
     d="m 522.81001,290.91024 c 16.76736,1.59521 33.48076,1.50935 50.3029,1.41025 3.93664,-0.0209 7.87332,-0.0297 11.81,-0.0397 7.65046,-0.0211 15.30079,-0.055 22.95117,-0.0976 -0.23865,3.9842 -0.48726,7.96765 -0.74463,11.95068 -0.12801,2.01222 -0.2484,4.02491 -0.36865,6.0376 -0.43111,6.59932 -1.07942,12.65532 -2.88672,19.01169 -1.38957,9.80533 -1.30737,19.86143 -1.5625,29.75 -0.0433,1.58334 -0.0869,3.16667 -0.13086,4.75 -0.10625,3.83324 -0.20632,7.66658 -0.30664,11.5 -7.92,0.495 -7.92,0.495 -16,1 1.32,-1.65 2.64,-3.3 4,-5 4.66583,-10.78021 7.48089,-23.24846 6,-35 -1.08451,-2.42294 -1.08451,-2.42294 -3,-4 -2.27889,-0.48169 -2.27889,-0.48169 -4.6875,-0.25 -1.21236,0.0541 -1.21236,0.0541 -2.44922,0.10937 -0.61488,0.0464 -1.22976,0.0928 -1.86328,0.14063 -1.58319,2.86754 -2.37525,5.32756 -2.85156,8.5625 -0.19384,1.31098 -0.19384,1.31098 -0.3916,2.64844 -0.12601,0.92039 -0.25201,1.84078 -0.38184,2.78906 -0.13116,0.94101 -0.26232,1.88203 -0.39746,2.85156 -1.1268,8.49932 -1.84525,16.7136 0.0225,25.14844 1.485,0.495 1.485,0.495 3,1 0,0.33 0,0.66 0,1 -5.94,0 -11.88,0 -18,0 1,-8 1,-8 2.01172,-11.14063 1.49051,-5.82063 1.58177,-11.62304 1.80078,-17.60937 0.0638,-1.23106 0.12762,-2.46211 0.19336,-3.73047 0.0686,-1.76537 0.0686,-1.76537 0.13867,-3.56641 0.0449,-1.07088 0.0897,-2.14177 0.13599,-3.24511 -0.0509,-2.71481 -0.0509,-2.71481 -1.60987,-4.52149 -2.57942,-1.83192 -4.52421,-2.12359 -7.67069,-2.18652 -2.74716,1.77039 -4.53146,3.06292 -6,6 -0.21434,2.46701 -0.37683,4.91488 -0.5,7.38672 -0.0609,1.10285 -0.0609,1.10285 -0.12305,2.22798 -0.12982,2.35739 -0.25388,4.71504 -0.37695,7.0728 -0.12352,2.33987 -0.24839,4.67964 -0.37695,7.01924 -0.0799,1.45572 -0.15687,2.9116 -0.23047,4.36765 -0.23806,4.36565 -0.71781,8.61166 -1.39258,12.92561 -4.62,0 -9.24,0 -14,0 0.30938,-1.54688 0.61875,-3.09375 0.9375,-4.6875 1.20444,-7.06549 1.47982,-14.12024 1.72046,-21.27612 0.0475,-1.32125 0.0475,-1.32125 0.096,-2.66919 0.0359,-1.18941 0.0359,-1.18941 0.0725,-2.40284 0.17354,-1.96435 0.17354,-1.96435 1.17354,-3.96435 0.36276,-4.11083 0.36276,-4.11083 -1.0625,-7.875 -3.16297,-1.83657 -5.37142,-1.68807 -8.9375,-1.125 -4.24837,4.82096 -4.59998,8.7836 -4.60937,14.89844 -0.0165,0.83496 -0.0331,1.66992 -0.0501,2.53018 -0.0483,2.64887 -0.0698,5.29716 -0.0905,7.94638 -0.0282,1.80341 -0.0581,3.6068 -0.0898,5.41016 -0.0737,4.4049 -0.12339,8.80948 -0.16016,13.21484 -5.28,0 -10.56,0 -16,0 -0.11596,-11.24859 -0.12817,-22.56293 1.75,-33.6875 0.50063,-3.25441 0.50063,-3.25441 -0.8125,-5.8125 -1.9276,-1.7355 -1.9276,-1.7355 -4.875,-2 -3.74088,0.61076 -4.84582,1.46233 -7.0625,4.5 -1.13357,4.18606 -1.21291,8.39688 -1.3164,12.70703 -0.0208,0.7254 -0.0416,1.45079 -0.063,2.19817 -0.065,2.30234 -0.12417,4.60479 -0.18312,6.9073 -0.0432,1.56707 -0.0868,3.13412 -0.13086,4.70117 -0.10742,3.82867 -0.20683,7.65743 -0.30664,11.48633 -4.95,0.33 -9.9,0.66 -15,1 -1.2004,-13.70132 -2.14421,-27.37058 -2.52735,-41.12109 -0.0357,-1.25778 -0.0713,-2.51555 -0.10806,-3.81144 -0.14155,-5.16281 -0.275,-10.3257 -0.39365,-15.4891 -0.0909,-3.83778 -0.19957,-7.67473 -0.31079,-11.51196 -0.022,-1.17164 -0.044,-2.34327 -0.0666,-3.5504 -0.0334,-1.07706 -0.0667,-2.15412 -0.10109,-3.26381 -0.0228,-0.94528 -0.0457,-1.89057 -0.0692,-2.86449 -0.48943,-2.76072 -1.26457,-3.66607 -3.42331,-5.38771 16.09998,-1.79423 31.77881,-2.84793 47.93593,-1.27292 z"
     fill="#fafafa"
     id="path8" />
  <path
     d="m 585.97174,154.60113 c 9.02243,7.50325 14.89464,20.40847 17.90234,31.58203 0.19532,3.64844 0.19532,3.64844 0.125,7.375 -0.0181,1.24524 -0.0361,2.49047 -0.0547,3.77344 -0.0232,0.94101 -0.0464,1.88203 -0.0703,2.85156 0.93715,0.14051 1.8743,0.28102 2.83985,0.42578 5.36198,0.97431 8.77572,3.53964 12.14453,7.83594 1.93092,3.30484 2.01562,5.89939 2.01562,9.73828 -1.28514,3.93103 -2.62051,5.67227 -5.75,8.375 -3.8225,1.91125 -6.02669,2.16251 -10.25,1.625 -1.68992,-0.96018 -3.36209,-1.95356 -5,-3 -3.16984,0.68852 -3.16984,0.68852 -4.375,3.375 -1.94299,3.13868 -3.22888,4.19109 -6.625,5.625 -3.96294,0.58681 -7.08417,0.36633 -10.8125,-1.125 -3.4708,-2.97497 -5.03444,-6.03568 -5.41406,-10.59766 0.2691,-3.89267 1.34883,-7.2646 2.66406,-10.90234 3.30916,-9.41765 5.94079,-18.32407 2.10547,-28.08203 -2.97132,-6.54035 -2.97132,-6.54035 -8.54297,-10.29297 -6.7801,-0.73461 -12.53733,-0.31486 -18,4 -6.85291,7.08365 -12.31245,14.99227 -15.5625,24.3125 -1.65353,4.24167 -3.35925,6.64838 -7.4375,8.6875 -4.86151,0.48615 -7.01018,0.59008 -11.25,-1.9375 -2.9846,-2.83134 -4.30545,-6.14218 -5.8164,-9.91016 -1.80146,-4.15316 -4.21398,-6.6726 -7.9336,-9.15234 -3.18066,-0.50221 -4.60603,-0.23845 -7.375,1.4375 -2.33477,2.27918 -4.17028,4.52717 -6.125,7.125 -3.38246,4.44176 -5.8058,7.0446 -11.5,7.875 -3.72413,-0.5431 -5.32854,-1.84237 -8,-4.4375 -1.40272,-2.80544 -1.45581,-5.51146 -1.8125,-8.625 -1.26287,-9.37957 -1.26287,-9.37957 -6.79297,-16.70703 -3.63319,-2.26974 -7.16601,-3.25543 -11.39453,-3.66797 0.9075,-3.0067 1.41869,-4.6229 4.10157,-6.36328 5.55901,-2.09108 9.97938,-3.68687 15.89843,-2.63672 3.70606,2.37369 7.33148,4.93299 8.72266,9.23438 0.0915,0.58265 0.18305,1.16531 0.27734,1.76562 0.71286,-0.48211 1.42571,-0.96422 2.16016,-1.46094 7.57241,-4.99391 14.45221,-8.90915 23.83984,-7.53906 6.59059,1.94459 12.34725,5.14728 18,9 0.54528,-0.70125 1.09055,-1.4025 1.65235,-2.125 14.58571,-18.35057 38.62584,-33.13694 61.44531,-17.45703 z"
     fill="#030303"
     id="path9" />
  <path
     d="m 164.62408,140.68316 c 1.5024,-0.0425 1.5024,-0.0425 3.03516,-0.0859 8.13653,-0.0216 8.13653,-0.0216 11.78515,2.99219 0.8018,0.85594 1.6036,1.71187 2.42969,2.59375 0.70125,0.66 1.4025,1.32 2.125,2 5.05144,5.3882 7.10517,8.76578 7.04297,16.30469 -0.30901,4.95844 -1.24401,9.81978 -2.16797,14.69531 -0.68063,-0.70125 -1.36125,-1.4025 -2.0625,-2.125 -7.34764,-7.32676 -12.18271,-11.23283 -22.75,-11.25 -0.78182,-0.0245 -1.56363,-0.049 -2.36914,-0.0742 -6.81021,-0.0341 -10.98908,1.70723 -15.9707,6.53516 -7.87196,10.09402 -13.97257,20.11197 -17.03785,32.58447 -1.21932,4.62584 -2.6993,6.85464 -6.80981,9.32959 -5.83265,0.64807 -8.83056,-0.12809 -14,-3 -8.186669,-2.09694 -18.01704,-2.75946 -25.499998,1.5625 -3.781446,2.62757 -6.833476,5.73232 -9.96875,9.08203 -1.53125,1.35541 -1.53125,1.35541 -4.34375,1.91791 -2.1875,-0.5625 -2.1875,-0.5625 -4.1875,-2.5625 0.43161,-7.57279 7.309198,-14.20536 12.328125,-19.41797 8.716512,-7.69189 19.308604,-10.18458 30.757813,-9.72266 0.63164,0.0464 1.26328,0.0928 1.91406,0.14063 0.0412,-1.0725 0.0825,-2.145 0.125,-3.25 2.01008,-15.27662 16.06553,-32.099 27.86328,-41.30078 8.47756,-5.7593 17.71839,-6.97548 27.76172,-6.94922 z"
     fill="#030303"
     id="path10" />
  <path
     d="m 246.93658,217.80816 c 3.20475,0.40912 5.38148,1.21009 7.79297,3.41797 2.63101,4.49875 2.02251,9.99455 1.14453,14.95703 -1.43838,2.50951 -2.55864,3.33273 -5,5 -0.33,0.33 -0.66,0.66 -1,1 -5.76767,0.57025 -11.11211,0.99737 -16.3125,-1.75 -2.61412,-5.0346 -2.60928,-9.70432 -1.6875,-15.25 1.30413,-3.05637 2.26699,-3.84848 5,-6 3.40304,-0.86623 6.59357,-0.95023 10.0625,-1.375 z"
     fill="#060606"
     id="path11" />
  <path
     d="m 319.87408,171.18316 c 3.3125,1.8125 3.3125,1.8125 5,5 0.74392,5.01204 0.69475,9.37892 -1.3125,14.0625 -3.32185,3.81398 -6.20047,4.3799 -11.0625,4.875 -4.16821,0.22769 -6.15008,0.29548 -9.9375,-1.5625 -2.61899,-5.23798 -2.71652,-10.64088 -1.6875,-16.375 4.92419,-7.33091 10.65822,-6.85689 19,-6 z"
     fill="#060606"
     id="path12" />
  <path
     d="m 244.12408,170.80816 c 4.17055,0.0641 6.3393,0.15802 10.0625,2.125 2.562,4.93423 2.40009,9.79677 1.6875,15.25 -0.88885,2.56828 -1.50678,3.66386 -3.75391,5.19531 -4.59181,1.64507 -9.39486,1.98363 -14.24609,1.80469 -3.12805,-1.77869 -4.41691,-2.83382 -6,-6 -1.0529,-10.18308 -1.0529,-10.18308 1.08203,-13.86719 1.35547,-1.32031 1.35547,-1.32031 3.91797,-3.13281 1.86252,-1.86252 4.75035,-1.30214 7.25,-1.375 z"
     fill="#060606"
     id="path13" />
  <path
     d="m 246.99908,122.87066 c 3.69807,0.40196 5.24144,1.75418 7.875,4.3125 2.08667,4.17333 1.4485,9.45443 1,14 -2.09216,3.67931 -3.01148,4.67049 -7,6 -5.49821,0.54825 -10.3091,0.91049 -15.25,-1.75 -2.7029,-5.01968 -2.67553,-9.68178 -1.75,-15.25 1.30413,-3.05637 2.26699,-3.84848 5,-6 3.43105,-0.87336 6.61805,-0.9618 10.125,-1.3125 z"
     fill="#060606"
     id="path14" />
  <path
     d="m 278.24908,170.74566 c 1.12148,-0.0193 2.24297,-0.0387 3.39844,-0.0586 3.96487,0.60961 5.57996,1.48326 8.22656,4.49609 0.59375,3.3125 0.59375,3.3125 0.5,7 -0.0103,1.21687 -0.0206,2.43375 -0.0312,3.6875 -0.49243,3.47981 -0.93489,4.921 -3.46875,7.3125 -4.48397,1.81067 -10.25117,2.7555 -15,2 -2.8125,-2.4375 -2.8125,-2.4375 -5,-5 -0.33,-0.33 -0.66,-0.66 -1,-1 -0.54373,-5.64639 -0.73531,-10.43463 3,-15 0.39832,-0.52852 0.79664,-1.05703 1.20703,-1.60156 2.6625,-2.07663 4.83656,-1.83213 8.16797,-1.83594 z"
     fill="#070707"
     id="path15" />
  <path
     d="m 315.99908,217.87066 c 3.69807,0.40196 5.24144,1.75418 7.875,4.3125 2.10173,4.20347 1.52975,9.4332 1,14 -2.47214,3.82058 -3.9244,4.73617 -8.3125,5.8125 -1.82531,0.0928 -1.82531,0.0928 -3.6875,0.1875 -0.68836,0.0735 -1.37672,0.14695 -2.08594,0.22266 -2.10156,0.15234 -2.10156,0.15234 -5.91406,-0.22266 -2.76202,-2.65428 -3.88623,-4.366 -4.56641,-8.15625 0.0105,-8.96774 0.0105,-8.96774 2.62891,-13.09375 4.33732,-2.58393 8.15255,-2.57151 13.0625,-3.0625 z"
     fill="#060606"
     id="path16" />
  <path
     d="m 281.43658,217.80816 c 3.4375,0.375 3.4375,0.375 6.375,2 3.26492,5.3426 3.11644,11.27668 2.0625,17.375 -2.24583,2.88206 -3.52015,3.84005 -7,5 -10.03907,1.12975 -10.03907,1.12975 -13.89844,-1.09375 -2.40261,-2.61093 -3.09749,-4.87428 -3.53906,-8.34375 1.12437,-9.15557 1.12437,-9.15557 4.1875,-12.4375 3.82803,-1.91401 7.60283,-2.05688 11.8125,-2.5 z"
     fill="#060606"
     id="path17" />
  <path
     d="m 315.99908,122.87066 c 3.69807,0.40196 5.24144,1.75418 7.875,4.3125 2.10173,4.20347 1.52975,9.4332 1,14 -2.47214,3.82058 -3.9244,4.73617 -8.3125,5.8125 -1.82531,0.0928 -1.82531,0.0928 -3.6875,0.1875 -0.68836,0.0735 -1.37672,0.14695 -2.08594,0.22266 -2.10156,0.15234 -2.10156,0.15234 -5.91406,-0.22266 -2.76202,-2.65428 -3.88623,-4.366 -4.56641,-8.15625 0.0105,-8.96774 0.0105,-8.96774 2.62891,-13.09375 4.33732,-2.58393 8.15255,-2.57151 13.0625,-3.0625 z"
     fill="#060606"
     id="path18" />
  <path
     d="m 288.04595,125.80035 c 3.60071,4.69323 2.53708,10.77084 1.82813,16.38281 -1.625,3.375 -1.625,3.375 -5,5 -5.30343,0.79109 -11.16026,1.55693 -16.02344,-1.10937 -2.38661,-2.56595 -2.97962,-4.91462 -3.41406,-8.32813 1.11695,-9.09523 1.11695,-9.09523 4.125,-12.4375 5.67216,-2.75943 13.25118,-3.40447 18.48437,0.49219 z"
     fill="#060606"
     id="path19" />
  <path
     d="m 378.87408,114.18315 c 3.22416,2.72263 5.77303,4.89771 6.23828,9.20704 0.20153,7.07462 0.20153,7.07462 -2.11328,10.85547 -2.48247,2.26343 -3.54911,2.85897 -6.875,3.3125 -3.40014,-0.39232 -5.55558,-1.14564 -8.10938,-3.48438 -2.52847,-4.19102 -1.91457,-9.22758 -1.14062,-13.89062 3.10867,-5.28475 5.91862,-6.71547 12,-6.00001 z"
     fill="#010503"
     id="path20" />
  <path
     d="m 411.87408,159.18316 c 3.17884,2.07315 4.65019,3.6828 5.63281,7.38281 0.57322,4.08572 0.72674,6.79536 -0.94531,10.61719 -3.32409,3.93967 -3.32409,3.93967 -5.71094,4.33594 -6.38718,0.1061 -6.38718,0.1061 -9.47656,-2.21094 -2.78861,-3.95053 -3.0025,-7.38211 -2.5,-12.125 2.64843,-6.81025 5.64033,-8.88824 13,-8 z"
     fill="#010302"
     id="path21" />
  <path
     d="m 410.87408,114.18315 c 2.69991,1.79994 4.54189,3.08377 6,6.00001 1.17019,10.02809 1.17019,10.02809 -1.12891,13.90234 -2.45073,2.20758 -4.72506,3.07084 -7.93359,3.66016 -3.63921,-0.69687 -5.33427,-1.95927 -7.9375,-4.5625 -1.7093,-5.12789 -1.61738,-9.41245 0.3125,-14.37501 2.90344,-4.51646 5.53104,-5.24378 10.6875,-4.625 z"
     fill="#010503"
     id="path22" />
  <path
     d="m 379.87408,159.18316 c 2.73651,1.89451 3.72821,3.16197 4.75,6.3125 0.91986,9.88846 0.91986,9.88846 -2.75,14.6875 -3.47163,1.73581 -7.21232,1.59309 -11,1 -2.89494,-2.4607 -3.77769,-4.26956 -4.875,-7.875 -0.19374,-4.84338 0.80901,-8.52602 3.5,-12.5625 3.42113,-2.25075 6.39424,-2.37173 10.375,-1.5625 z"
     fill="#010302"
     id="path23" />
  <path
     d="m 377.93658,203.648 c 2.75223,0.76019 4.46589,2.23322 6.08594,4.55859 1.71182,3.97332 1.68048,7.77762 0.85156,11.97657 -1.30977,3.04009 -2.26571,3.83535 -5,6 -2.8659,0.79159 -5.12646,0.73576 -8,0 -3,-1.75 -3,-1.75 -5,-5 -0.95286,-5.65468 -1.04518,-10.30158 2,-15.25 3.28238,-1.91473 5.30446,-2.56274 9.0625,-2.28516 z"
     fill="#010403"
     id="path24" />
  <path
     d="m 411.87408,204.18316 c 3,1.75 3,1.75 5,5 0.95737,5.68141 1.06826,10.31668 -2.0625,15.25 -3.70915,2.2097 -5.68413,2.43358 -9.9375,1.75 -2.75329,-1.79562 -4.52628,-3.05255 -6,-6 -0.2869,-5.83354 -0.009,-9.76297 3.125,-14.8125 3.14758,-1.99347 6.34198,-1.87486 9.875,-1.1875 z"
     fill="#010302"
     id="path26" />
  <path
     d="m 593.87408,303.18316 c 2.5,1.5 2.5,1.5 4,4 0.79101,4.02098 0.62153,6.96411 -1.5,10.5 -3.53589,2.12153 -6.47902,2.29101 -10.5,1.5 -2.5,-1.5 -2.5,-1.5 -4,-4 -0.79101,-4.02098 -0.62153,-6.96411 1.5,-10.5 3.53589,-2.12153 6.47902,-2.29101 10.5,-1.5 z"
     fill="#030303"
     id="path30" />
  <path
     d="m 503.87408,307.18316 c 2.4375,1.625 2.4375,1.625 4,4 0,3.53156 -0.32301,5.27465 -2.75,7.875 -2.77317,1.38658 -4.1943,1.73614 -7.25,1.125 -2.375,-2.125 -2.375,-2.125 -4,-5 0.0625,-3.1875 0.0625,-3.1875 1,-6 3.49124,-2.32749 4.89222,-2.50299 9,-2 z"
     fill="#0d0d0d"
     id="path36" />
  <path
     d="m 535.87408,305.18316 c 2,1.625 2,1.625 3,4 -0.071,3.48036 -0.38585,5.29486 -2.6875,7.9375 -3.17472,1.45866 -5.01128,1.06722 -8.3125,0.0625 -2.31283,-3.46924 -2.42479,-4.92206 -2,-9 2.27625,-4.01691 5.79275,-3.52591 10,-3 z"
     fill="#0c0c0c"
     id="path37" />
  <path
     d="m 101.49908,302.24566 c 3.375,0.9375 3.375,0.9375 5.375,3.9375 -0.14263,3.42319 -0.4154,5.32879 -2.6875,7.9375 -3.15153,1.448 -5.021991,0.99243 -8.312498,0.0625 -2,-2 -2,-2 -2.375,-4.875 0.375,-3.125 0.375,-3.125 1.9375,-5.5625 2.4375,-1.5625 2.4375,-1.5625 6.062498,-1.5 z"
     fill="#0a0a0a"
     id="path39" />
  <path
     d="m 164.87408,305.18316 c 1.9375,1.1875 1.9375,1.1875 3,3 0.5,2.4375 0.5,2.4375 0,5 -2.46001,2.60058 -4.07319,3.84553 -7.625,4.4375 -2.375,-0.4375 -2.375,-0.4375 -4.1875,-1.5625 -1.73949,-2.74656 -1.58519,-4.69347 -1.1875,-7.875 2.27945,-4.02256 5.78841,-3.45124 10,-3 z"
     fill="#0a0a0a"
     id="path41" />
  <path
     d="m 386.99908,289.05816 c 0.94875,0.0412 1.8975,0.0825 2.875,0.125 2.09492,3.40424 2.49573,6.03415 2,10 -1.75,2.4375 -1.75,2.4375 -4,4 -2.125,-0.0625 -2.125,-0.0625 -4,-1 -2.71233,-4.06849 -2.307,-6.16477 -2,-11 2,-2 2,-2 5.125,-2.125 z"
     fill="#020202"
     id="path43" />
  <path
     d="m 565.87408,308.18316 c 1.875,1.6875 1.875,1.6875 3,4 -0.125,2.625 -0.125,2.625 -1,5 -3,2 -3,2 -6.0625,1.8125 -2.9375,-0.8125 -2.9375,-0.8125 -4.9375,-3.8125 0.1875,-2.5625 0.1875,-2.5625 1,-5 3.22143,-2.14762 4.25955,-2.56107 8,-2 z"
     fill="#141414"
     id="path47" />
  <path
     d="m 304.87408,370.18316 c 0.33,0.99 0.66,1.98 1,3 0.825,-0.165 1.65,-0.33 2.5,-0.5 3.91272,-0.55896 7.55183,-0.56807 11.5,-0.5 0,1.98 0,3.96 0,6 -5.08098,1.04225 -9.83691,1.07823 -15,1 0,-2.97 0,-5.94 0,-9 z"
     fill="#52e1a4"
     id="path49" />
  <path
     d="m 334.87408,370.18316 c 0.33,0.66 0.66,1.32 1,2 4.95,0 9.9,0 15,0 0,1.65 0,3.3 0,5 -8.415,0.495 -8.415,0.495 -17,1 0.33,-2.64 0.66,-5.28 1,-8 z"
     fill="#50e2a3"
     id="path51" />
  <path
     d="m 130.43658,304.37066 c 2.4375,0.8125 2.4375,0.8125 4.4375,2.8125 0.36796,2.87012 0.37509,4.40775 -1.1875,6.875 -1.8125,1.125 -1.8125,1.125 -4.375,0.9375 -2.4375,-0.8125 -2.4375,-0.8125 -4.4375,-2.8125 -0.36796,-2.87012 -0.37509,-4.40775 1.1875,-6.875 1.8125,-1.125 1.8125,-1.125 4.375,-0.9375 z"
     fill="#0d0d0d"
     id="path54" />
  <path
     d="m 188.81158,303.99566 c 3.0625,0.1875 3.0625,0.1875 5.0625,2.1875 0.36796,2.87012 0.37509,4.40775 -1.1875,6.875 -1.8125,1.125 -1.8125,1.125 -4.375,0.9375 -2.4375,-0.8125 -2.4375,-0.8125 -4.4375,-2.8125 0.70586,-6.9174 0.70586,-6.9174 4.9375,-7.1875 z"
     fill="#0f0f0f"
     id="path56" />
  <path
     d="m 364.87408,370.18316 c 0.33,0.66 0.66,1.32 1,2 3.96,0 7.92,0 12,0 0,1.98 0,3.96 0,6 -4.29,0 -8.58,0 -13,0 0,-2.64 0,-5.28 0,-8 z"
     fill="#52db9f"
     id="path57" />
  <path
     d="m 408.87408,159.18316 c -0.48421,7.26316 -0.48421,7.26316 -2.75,10.5 -2.65401,1.76934 -4.12193,1.84756 -7.25,1.5 0.25193,-4.28283 0.62371,-6.52201 3.3125,-9.9375 2.6875,-2.0625 2.6875,-2.0625 6.6875,-2.0625 z"
     fill="#050706"
     id="path58" />
  <path
     d="m 211.87408,155.18316 c 1.32,0.33 2.64,0.66 4,1 0,3.63 0,7.26 0,11 -1.32,0.33 -2.64,0.66 -4,1 -0.99,-0.66 -1.98,-1.32 -3,-2 -0.39844,-2.09375 -0.39844,-2.09375 -0.375,-4.5 -0.008,-0.79406 -0.0155,-1.58813 -0.0234,-2.40625 0.13149,-0.69094 0.26297,-1.38188 0.39844,-2.09375 0.99,-0.66 1.98,-1.32 3,-2 z"
     fill="#040404"
     id="path59" />
  <path
     d="m 389.87408,371.18316 c 0.33,0.99 0.66,1.98 1,3 6.6,0 13.2,0 20,0 0,0.99 0,1.98 0,3 -6.93,0 -13.86,0 -21,0 0,-1.98 0,-3.96 0,-6 z"
     fill="#4cdb9c"
     id="path62" />
  <path
     d="m 495.87408,361.18316 c 0.33,0 0.66,0 1,0 0,5.61 0,11.22 0,17 -4.95,0.33 -9.9,0.66 -15,1 0,-1.32 0,-2.64 0,-4 4.62,0 9.24,0 14,0 0,-4.62 0,-9.24 0,-14 z"
     fill="#65cea1"
     id="path64" />
  <path
     d="m 449.87408,370.18316 c 0.33,1.32 0.66,2.64 1,4 2.64,0 5.28,0 8,0 -0.33,1.65 -0.66,3.3 -1,5 -2.97,0 -5.94,0 -9,0 0.33,-2.97 0.66,-5.94 1,-9 z"
     fill="#52d49b"
     id="path70" />
  <path
     d="m 628.87408,395.18316 c 5.94,0 11.88,0 18,0 -4.60178,2.30089 -6.55205,3.12149 -11.625,3.0625 -1.00289,-0.009 -2.00578,-0.0181 -3.03906,-0.0273 -0.77086,-0.0116 -1.54172,-0.0232 -2.33594,-0.0352 -0.33,-0.99 -0.66,-1.98 -1,-3 z"
     fill="#6ae9b3"
     id="path74" />
  <path
     d="m 422.87408,372.18316 c 0.33,0.66 0.66,1.32 1,2 3.96,0 7.92,0 12,0 0,0.99 0,1.98 0,3 -4.29,0 -8.58,0 -13,0 0,-1.65 0,-3.3 0,-5 z"
     fill="#4cd99b"
     id="path78" />
  <path
     d="m 291.45907,364.18316 c 0.35413,0 0.70827,0 1.07313,0 0,4.95 0,9.9 0,15 -3.18718,0 -6.37436,0 -9.65812,0 0.35413,-0.66 0.70826,-1.32 1.07312,-2 2.49133,-0.40729 4.99741,-0.74439 7.51187,-1 0,-3.96 0,-7.92 0,-12 z"
     fill="#69bd98"
     id="path84"
     style="stroke-width:1.03592" />
  <path
     d="m 347.87408,160.18316 c 0.99,0 1.98,0 3,0 0,2.64 0,5.28 0,8 -1.32,-0.33 -2.64,-0.66 -4,-1 -0.0425,-1.99955 -0.0408,-4.00042 0,-6 0.33,-0.33 0.66,-0.66 1,-1 z"
     fill="#000000"
     id="path89" />
  <path
     d="m 364.87408,157.18316 c 2.625,0.375 2.625,0.375 5,1 0,1.32 0,2.64 0,4 -0.99,0.66 -1.98,1.32 -3,2 -0.33,-0.99 -0.66,-1.98 -1,-3 -0.99,-0.66 -1.98,-1.32 -3,-2 0.66,-0.66 1.32,-1.32 2,-2 z"
     fill="#53d392"
     id="path91" />
  <path
     d="m 185.87408,304.18316 c 1.98,0 3.96,0 6,0 0.66,1.32 1.32,2.64 2,4 -2.97,-0.33 -5.94,-0.66 -9,-1 0.33,-0.99 0.66,-1.98 1,-3 z"
     fill="#292929"
     id="path95" />
</svg>
